<?xml version="1.0" standalone="no"?>
<!DOCTYPE svg PUBLIC "-//W3C//DTD SVG 20010904//EN"
 "http://www.w3.org/TR/2001/REC-SVG-20010904/DTD/svg10.dtd">
<svg version="1.0" xmlns="http://www.w3.org/2000/svg"
 width="512.000000pt" height="512.000000pt" viewBox="0 0 512.000000 512.000000"
 preserveAspectRatio="xMidYMid meet">
<metadata>
Created by potrace 1.16, written by Peter Selinger 2001-2019
</metadata>
<g transform="translate(0.000000,512.000000) scale(0.100000,-0.100000)"
fill="#000000" stroke="none">
<path d="M915 4386 c-254 -31 -421 -70 -457 -107 -26 -25 -28 -34 -28 -103 l0
-76 -159 0 c-186 0 -212 -4 -246 -38 l-25 -25 0 -1628 0 -1628 23 -26 c39 -46
86 -44 197 8 179 84 457 171 690 216 480 93 1012 86 1487 -20 73 -16 146 -29
163 -29 17 0 90 13 163 29 188 42 383 69 601 82 529 34 1140 -73 1565 -272
124 -58 160 -62 202 -20 l29 29 0 1630 0 1629 -25 25 c-34 34 -60 38 -246 38
l-159 0 0 63 c0 84 -22 128 -74 145 -75 24 -289 63 -434 78 -193 21 -496 14
-669 -15 -370 -63 -648 -188 -887 -400 l-68 -61 -71 66 c-218 202 -537 344
-897 399 -144 23 -529 28 -675 11z m480 -206 c354 -31 632 -127 860 -298 44
-33 106 -87 137 -119 l57 -58 3 -1228 c2 -675 1 -1226 -2 -1225 -3 2 -55 28
-115 59 -234 121 -467 186 -800 225 -212 25 -682 19 -867 -11 l-28 -4 0 1303
0 1303 138 22 c240 39 418 48 617 31z m2839 -15 c62 -8 141 -21 176 -28 l65
-13 3 -1302 2 -1303 -32 5 c-200 32 -657 38 -876 12 -327 -40 -550 -103 -787
-225 -60 -31 -113 -57 -117 -59 -4 -2 -8 546 -8 1218 l0 1221 25 33 c33 43
163 153 245 206 203 131 476 219 775 250 115 11 386 4 529 -15z m-3804 -1526
c0 -1116 2 -1255 16 -1284 27 -57 49 -60 261 -36 452 50 850 31 1144 -54 l84
-25 -75 7 c-125 10 -497 6 -625 -7 -319 -32 -661 -110 -934 -215 -51 -19 -95
-35 -97 -35 -2 0 -4 653 -4 1450 l0 1450 115 0 115 0 0 -1251z m4490 -199 c0
-797 -2 -1450 -4 -1450 -2 0 -52 18 -111 40 -285 106 -601 178 -920 211 -127
13 -512 17 -630 6 l-70 -6 45 15 c63 21 257 60 375 75 168 22 574 17 806 -10
184 -22 198 -22 228 -7 18 10 36 28 41 42 6 16 10 505 10 1280 l0 1254 115 0
115 0 0 -1450z"/>
</g>
</svg>
