<?xml version="1.0" standalone="no"?>
<!DOCTYPE svg PUBLIC "-//W3C//DTD SVG 20010904//EN"
 "http://www.w3.org/TR/2001/REC-SVG-20010904/DTD/svg10.dtd">
<svg version="1.0" xmlns="http://www.w3.org/2000/svg"
 width="512.000000pt" height="512.000000pt" viewBox="0 0 512.000000 512.000000"
 preserveAspectRatio="xMidYMid meet">
<metadata>
Created by potrace 1.16, written by Peter Selinger 2001-2019
</metadata>
<g transform="translate(0.000000,512.000000) scale(0.100000,-0.100000)"
fill="#000000" stroke="none">
<path d="M1301 5105 c-95 -21 -157 -44 -246 -88 -462 -229 -673 -786 -479
-1265 38 -97 105 -207 164 -275 l42 -47 -166 0 -166 0 0 -1200 0 -1200 590 0
c325 0 590 -2 590 -4 0 -3 -159 -234 -354 -513 l-354 -508 181 -3 c100 -1 186
-1 192 2 6 2 165 226 355 499 l345 495 3 -499 2 -499 155 0 155 0 0 496 0 497
346 -497 346 -496 189 0 c150 0 189 3 182 13 -4 6 -164 237 -356 512 l-348
500 595 3 596 2 2 248 3 248 400 -121 400 -122 3 945 c1 520 0 947 -2 950 -4
3 -739 -215 -793 -235 -10 -4 -13 48 -13 241 l0 246 -115 0 -116 0 32 46 c43
63 93 176 115 259 26 100 24 293 -4 396 -76 281 -302 502 -587 574 -101 26
-284 24 -390 -4 -104 -27 -206 -78 -293 -145 l-70 -54 -23 51 c-66 142 -209
310 -338 397 -85 57 -213 116 -308 142 -103 27 -366 35 -462 13z m364 -311
c307 -74 525 -352 525 -669 0 -124 -17 -192 -76 -313 -76 -156 -226 -287 -392
-342 -411 -136 -844 138 -902 572 -14 102 -2 205 34 310 115 330 471 524 811
442z m1426 -388 c202 -43 355 -205 391 -412 33 -200 -82 -414 -272 -507 -194
-94 -405 -59 -559 94 -96 97 -142 208 -142 344 0 190 105 358 276 440 108 52
197 64 306 41z m459 -2176 l0 -890 -1395 0 -1395 0 0 890 0 890 1395 0 1395 0
0 -890z m810 1 l0 -529 -97 29 c-54 16 -167 50 -250 76 l-153 46 0 381 0 381
238 72 c130 39 243 72 250 72 9 1 12 -111 12 -528z"/>
<path d="M1520 2235 l0 -155 630 0 630 0 0 155 0 155 -630 0 -630 0 0 -155z"/>
</g>
</svg>
