<?xml version="1.0" standalone="no"?>
<!DOCTYPE svg PUBLIC "-//W3C//DTD SVG 20010904//EN"
 "http://www.w3.org/TR/2001/REC-SVG-20010904/DTD/svg10.dtd">
<svg version="1.0" xmlns="http://www.w3.org/2000/svg"
 width="512.000000pt" height="512.000000pt" viewBox="0 0 512.000000 512.000000"
 preserveAspectRatio="xMidYMid meet">
<metadata>
Created by potrace 1.16, written by Peter Selinger 2001-2019
</metadata>
<g transform="translate(0.000000,512.000000) scale(0.100000,-0.100000)"
fill="#000000" stroke="none">
<path d="M1493 5101 c-106 -36 -190 -119 -235 -228 l-23 -58 0 -1025 c0 -1025
0 -1025 21 -1077 l22 -52 -502 -3 -501 -3 -60 -29 c-76 -38 -143 -105 -181
-181 l-29 -60 0 -1055 0 -1055 29 -60 c38 -76 105 -143 181 -181 l60 -29 1025
-3 c741 -2 1040 0 1078 8 31 7 79 29 117 55 l65 43 65 -43 c38 -26 86 -48 117
-55 38 -8 337 -10 1078 -8 l1025 3 60 29 c76 38 143 105 181 181 l29 60 0
1055 0 1055 -29 60 c-38 76 -105 143 -181 181 l-60 29 -491 3 -491 3 19 55
c17 52 18 105 16 1092 l-3 1037 -29 60 c-38 76 -105 143 -181 181 l-60 29
-1040 2 c-980 2 -1043 1 -1092 -16z m2107 -213 c27 -15 54 -42 68 -66 l22 -40
0 -992 0 -992 -22 -40 c-14 -24 -41 -51 -68 -66 l-45 -27 -985 0 -985 0 -42
22 c-48 26 -76 62 -92 118 -15 56 -15 1914 0 1970 21 74 66 116 144 136 17 4
464 6 995 6 l965 -2 45 -27z m-1243 -2455 c28 -15 52 -39 70 -70 l28 -48 0
-985 0 -985 -25 -43 c-15 -27 -42 -54 -70 -70 l-45 -27 -985 0 -985 0 -48 28
c-31 18 -55 42 -70 70 l-22 42 0 985 0 985 25 44 c26 47 69 78 123 92 18 4
466 6 997 6 l965 -2 42 -22z m2460 0 c28 -15 52 -39 70 -70 l28 -48 0 -985 0
-985 -25 -43 c-15 -27 -42 -54 -70 -70 l-45 -27 -985 0 -985 0 -48 28 c-31 18
-55 42 -70 70 l-22 42 0 985 0 985 25 44 c26 47 69 78 123 92 18 4 466 6 997
6 l965 -2 42 -22z"/>
<path d="M2475 4511 c-47 -22 -62 -38 -178 -187 l-86 -112 -118 -42 c-236 -85
-265 -105 -294 -202 -22 -72 -6 -118 101 -276 l98 -147 6 -174 c6 -141 10
-180 25 -210 36 -68 104 -111 179 -111 21 0 109 21 195 46 l157 45 158 -45
c87 -25 175 -46 195 -46 45 0 103 23 135 53 52 48 61 83 68 268 l6 174 98 146
c107 159 123 205 101 277 -29 97 -58 117 -294 202 l-118 42 -86 112 c-47 61
-98 124 -112 140 -35 39 -97 66 -151 66 -25 0 -63 -9 -85 -19z m197 -340 l106
-137 164 -59 c89 -32 165 -60 167 -61 2 -2 -36 -60 -84 -131 -49 -70 -94 -142
-101 -160 -9 -20 -14 -71 -14 -136 0 -57 -3 -131 -6 -164 l-6 -59 -147 43
c-80 24 -164 44 -186 44 -22 1 -108 -19 -191 -43 l-151 -45 -7 60 c-3 33 -6
107 -6 164 0 65 -5 116 -14 136 -7 18 -52 90 -101 160 -48 71 -86 129 -84 131
2 1 78 29 167 61 l164 59 106 137 c59 76 109 138 112 138 3 0 53 -62 112 -138z"/>
<path d="M670 2114 c-19 -8 -52 -32 -73 -52 -67 -66 -67 -63 -67 -732 0 -669
0 -666 67 -732 73 -71 43 -68 738 -68 683 0 666 -1 728 58 16 15 39 45 50 67
22 40 22 43 22 675 0 632 0 635 -22 675 -27 51 -68 90 -115 109 -55 24 -1275
23 -1328 0z m1255 -784 l0 -585 -590 0 -590 0 -3 575 c-1 316 0 581 3 588 3
10 127 12 592 10 l588 -3 0 -585z"/>
<path d="M3599 2150 c-152 -38 -284 -114 -392 -229 -82 -88 -137 -180 -178
-301 -31 -90 -33 -103 -33 -240 -1 -111 4 -160 18 -210 74 -264 265 -470 517
-555 384 -131 814 50 983 415 59 128 71 187 70 350 0 137 -2 150 -33 240 -41
121 -96 213 -178 301 -157 166 -354 250 -588 248 -72 0 -137 -7 -186 -19z
m331 -205 c103 -27 199 -83 275 -159 181 -182 225 -442 114 -670 -96 -197
-315 -336 -529 -336 -214 0 -433 140 -529 336 -83 170 -79 367 11 537 67 127
218 246 363 288 75 22 221 24 295 4z"/>
</g>
</svg>
